<svg version="1.1" id="Layer_1" xmlns="http://www.w3.org/2000/svg" xmlns:xlink="http://www.w3.org/1999/xlink" x="0px" y="0px"
	 width="100%" viewBox="0 0 1024 528" enable-background="new 0 0 1024 528" xml:space="preserve">
<path fill="#000000" opacity="1.000000" stroke="none" 
	d="
M384.810852,109.788300 
	C398.045502,113.433876 405.779541,121.766571 408.056274,134.864609 
	C410.139923,146.852036 404.669800,157.034760 391.406036,166.583115 
	C391.799011,168.327286 393.580383,168.310165 394.716461,169.023849 
	C400.960175,172.946274 404.427002,178.255920 404.343964,185.903778 
	C404.179260,201.066635 404.436981,216.234711 404.207306,231.395889 
	C404.139862,235.848648 405.661896,237.044998 409.981323,237.036575 
	C506.967804,236.847366 603.954590,236.751709 700.941223,236.797928 
	C705.701660,236.800201 706.858398,235.216934 706.787476,230.760147 
	C706.559387,216.432404 706.991211,202.091125 706.609680,187.769943 
	C706.368408,178.712646 709.938721,172.415634 717.773804,168.255661 
	C718.468567,167.886810 719.073730,167.349167 719.789185,166.841110 
	C703.688110,153.816254 699.336365,142.325089 704.833557,127.796516 
	C709.015381,116.744621 721.855286,108.286095 733.552185,108.877579 
	C747.013184,109.558281 758.547180,118.575905 761.927917,131.062592 
	C765.839966,145.511917 760.509460,156.534012 744.266174,167.471390 
	C744.812622,169.325272 746.723206,169.482391 748.013367,170.324081 
	C753.759644,174.072861 757.323303,179.111679 758.417847,186.008255 
	C759.955078,195.694397 761.503052,205.395432 763.600220,214.968781 
	C764.580200,219.442627 763.896362,223.132507 761.573303,226.823303 
	C760.688904,228.228241 759.952454,229.737335 759.260071,231.249985 
	C757.290466,235.552841 757.899475,236.618759 762.641968,236.649094 
	C774.140015,236.722672 785.638855,236.669098 797.137329,236.680862 
	C818.546448,236.702759 832.899963,248.532150 837.166687,269.830231 
	C839.611206,282.032501 839.372192,294.339264 834.009827,305.578979 
	C827.880066,318.427155 826.850159,331.723053 827.389893,345.470856 
	C827.422485,346.302765 827.539185,347.136383 827.505981,347.964752 
	C827.447510,349.423553 826.852173,350.665283 825.295105,350.864624 
	C823.745300,351.062958 822.888672,349.934326 822.339722,348.645508 
	C822.082703,348.042114 821.866760,347.366180 821.858215,346.720123 
	C821.678833,333.094452 821.275269,319.680328 827.312927,306.621521 
	C835.387939,289.156128 835.609985,271.344025 824.305786,254.803055 
	C818.643005,246.516998 810.665283,241.981216 800.153931,242.242050 
	C788.329346,242.535461 776.492065,242.300247 764.660278,242.319977 
	C758.147034,242.330826 758.100769,242.354004 758.099976,249.070038 
	C758.094849,292.064331 758.086670,335.058624 758.136536,378.052856 
	C758.151428,390.908630 746.789368,399.320221 734.571716,395.140961 
	C731.609192,394.127533 729.125854,394.001587 726.030884,394.869507 
	C715.995544,397.683685 707.588684,390.940918 707.601624,380.653442 
	C707.638367,351.324036 707.378174,321.991699 707.722900,292.666290 
	C707.900391,277.570953 705.776184,262.547363 706.770447,247.465851 
	C707.059387,243.083176 705.131958,242.196884 701.209656,242.221237 
	C678.046936,242.364975 654.882996,242.309280 631.719421,242.315567 
	C562.895264,242.334244 494.071136,242.337402 425.247009,242.392624 
	C419.754761,242.397034 414.262695,242.898651 408.770691,242.896790 
	C405.218414,242.895584 404.177246,244.508270 404.251648,247.812134 
	C404.401611,254.474548 404.594269,261.158234 404.247314,267.805908 
	C402.252411,306.029510 403.919739,344.273529 403.441498,382.503845 
	C403.330811,391.349884 394.031647,397.577209 384.665985,394.787720 
	C381.952240,393.979431 379.758667,393.960144 377.065033,394.923737 
	C364.447815,399.437408 352.890228,391.016052 352.897278,377.599609 
	C352.919769,334.771942 352.917175,291.944275 352.909424,249.116623 
	C352.908173,242.298950 352.872772,242.276398 345.997772,242.272659 
	C333.333038,242.265793 320.636230,242.872894 308.010162,242.179230 
	C280.058655,240.643585 256.253174,250.843307 234.141754,266.651428 
	C208.804443,284.765869 190.382797,308.685547 174.989487,335.418610 
	C163.992584,354.516632 149.636765,370.935028 131.630463,383.854126 
	C124.288429,389.121857 116.467812,393.645355 106.896751,393.349182 
	C105.393326,393.302673 103.893143,393.278076 102.544022,392.467804 
	C101.286728,391.712646 100.531921,390.686218 100.933556,389.165588 
	C101.344803,387.608551 102.570572,387.033691 104.004219,387.271637 
	C115.045341,389.104034 123.253441,383.063232 131.224945,377.073303 
	C150.505142,362.585846 164.101730,343.367462 176.061569,322.715820 
	C193.541473,292.532440 217.266739,268.424316 247.790695,251.285538 
	C264.765686,241.754318 282.710876,235.942825 302.550903,236.584930 
	C317.866486,237.080643 333.210388,236.728577 348.541595,236.696396 
	C353.653412,236.685669 354.679169,235.559753 351.896393,231.778931 
	C345.751068,223.429489 347.091278,214.685074 348.993866,205.612930 
	C350.426178,198.783096 351.468262,191.872269 352.749084,185.009628 
	C353.844513,179.140152 357.100555,174.646622 361.875641,171.196182 
	C363.465637,170.047287 365.126648,168.996719 366.824005,167.854904 
	C348.738007,153.287247 344.223999,141.672516 350.764099,126.934204 
	C356.566833,113.857628 369.524872,107.226463 384.810852,109.788300 
M758.473999,217.614075 
	C756.812927,208.287247 755.206482,198.950272 753.478149,189.635925 
	C750.779053,175.089279 737.130310,167.248810 722.986389,172.050873 
	C715.288330,174.664459 712.292236,178.770142 712.287354,186.872131 
	C712.271484,213.359604 712.458191,239.848984 712.176697,266.333466 
	C712.085693,274.900604 715.826660,280.843079 722.858459,284.609161 
	C727.260254,286.966705 728.396973,289.931519 728.369019,294.577911 
	C728.201782,322.397125 728.339111,350.218048 728.227234,378.037781 
	C728.206909,383.100555 730.122742,386.754486 734.501038,389.054749 
	C743.227051,393.639160 752.565369,387.923767 752.578125,377.872070 
	C752.630798,336.391785 752.593384,294.911407 752.557190,253.431061 
	C752.555115,251.083267 752.267944,248.735718 752.049805,245.420502 
	C749.485840,250.151489 747.609070,254.069077 744.806396,257.386169 
	C741.022217,261.864960 736.199707,264.252563 730.298157,263.639435 
	C718.674683,262.431915 713.030579,249.265213 719.498962,238.266312 
	C722.534241,233.105087 726.005249,228.195175 729.380554,223.240692 
	C731.169128,220.615311 731.715576,217.988876 731.141479,214.768982 
	C729.741211,206.915222 728.708191,198.995193 727.578796,191.094513 
	C727.298584,189.134232 726.768494,186.625900 729.551819,186.277039 
	C732.194336,185.945816 732.610046,188.536804 732.939819,190.423477 
	C733.883484,195.822662 734.016846,201.430771 735.530701,206.648636 
	C738.444214,216.690704 736.339478,225.216171 729.648010,232.979950 
	C728.033691,234.853012 726.899170,237.143478 725.571655,239.259384 
	C720.882263,246.733795 721.466797,253.668472 727.039185,256.831543 
	C732.745667,260.070709 739.042480,257.318909 743.348633,249.696823 
	C743.676025,249.117340 743.954224,248.510254 744.263123,247.920074 
	C748.432800,239.952744 752.615784,231.992340 756.765198,224.014511 
	C757.679321,222.256943 758.829651,220.552048 758.473999,217.614075 
M352.993500,216.073334 
	C352.191345,218.212372 352.277588,220.238220 353.377472,222.318924 
	C358.356781,231.738678 363.261841,241.197647 368.198364,250.640015 
	C368.351990,250.933838 368.552551,251.203857 368.739380,251.479462 
	C373.005768,257.774384 379.474182,259.852997 384.480011,256.538940 
	C389.300507,253.347641 390.145752,246.674683 386.290100,240.436646 
	C383.139252,235.338898 379.787781,230.362198 376.425964,225.399139 
	C374.881805,223.119537 373.652527,220.734482 374.036987,217.965332 
	C375.339478,208.584518 376.736389,199.215988 378.210022,189.860519 
	C378.492584,188.066757 379.166565,185.923538 381.584747,186.364334 
	C383.992920,186.803284 383.769104,188.913910 383.493958,190.798431 
	C382.293091,199.022598 381.218109,207.268188 379.823608,215.459396 
	C379.334045,218.335114 379.880035,220.647842 381.465881,222.969742 
	C384.565155,227.507614 387.609344,232.085541 390.570618,236.714508 
	C393.036743,240.569382 394.743744,244.731857 394.216919,249.429504 
	C393.512268,255.712921 390.437592,260.554535 384.417816,262.767731 
	C377.811188,265.196625 372.020630,263.225922 367.105957,258.334198 
	C363.585785,254.830521 362.084045,249.964935 358.426758,244.863480 
	C358.426758,256.056610 358.418488,265.847748 358.428253,275.638885 
	C358.461487,308.931854 358.498505,342.224854 358.544800,375.517822 
	C358.547546,377.509308 358.356171,379.559784 358.750702,381.481018 
	C359.923767,387.193390 366.031464,391.308685 371.923401,390.591370 
	C378.256165,389.820404 382.667877,385.201141 382.683136,378.925140 
	C382.752472,350.443329 382.789856,321.961121 382.686066,293.479645 
	C382.671692,289.534668 383.861481,287.066925 387.458008,285.104767 
	C395.191162,280.885803 399.042938,274.608704 398.886444,265.209167 
	C398.451202,239.066376 398.751099,212.911545 398.735168,186.761459 
	C398.730469,179.066483 396.157288,174.820038 388.847473,172.416855 
	C379.582397,169.370834 370.751587,170.445862 363.202759,177.267639 
	C360.800385,179.438614 359.026703,182.088730 358.439819,185.300873 
	C356.617157,195.276840 354.905853,205.273148 352.993500,216.073334 
M396.666412,122.867287 
	C395.026733,121.466537 393.505859,119.888741 391.727203,118.695000 
	C382.967865,112.816063 371.243652,113.226959 363.279449,119.577362 
	C354.553436,126.535210 351.458038,137.407867 355.268768,147.715088 
	C358.931854,157.623032 368.813538,164.350266 379.399902,163.599213 
	C388.653351,162.942749 395.948792,158.641815 400.108521,150.112350 
	C404.706940,140.683365 403.377441,131.730606 396.666412,122.867287 
M708.619751,143.664764 
	C713.110962,159.081680 725.138428,166.455505 739.583191,162.647934 
	C752.132507,159.339996 759.698975,146.160446 756.608582,132.992508 
	C753.728455,120.720535 740.837402,112.645317 728.406921,114.978676 
	C715.761597,117.352379 706.697510,128.968765 708.619751,143.664764 
M397.434296,384.419861 
	C397.541260,383.763214 397.741211,383.106689 397.741821,382.449951 
	C397.770569,350.621826 397.783691,318.793701 397.784546,286.965576 
	C397.784576,286.331390 397.747864,285.618408 397.581024,285.588440 
	C389.057526,288.540802 387.092163,294.565002 388.273834,302.289551 
	C388.547852,304.080841 388.315918,305.949585 388.315887,307.782684 
	C388.315704,321.447571 388.620361,335.121216 388.228638,348.774872 
	C387.841370,362.272858 390.232666,375.911346 386.156433,389.377533 
	C390.985474,390.460541 394.604095,389.285858 397.434296,384.419861 
M722.682251,372.469788 
	C722.682556,348.350311 722.270569,324.219727 722.918945,300.117676 
	C723.130249,292.261871 719.841125,288.432678 713.165466,285.253662 
	C713.165466,298.437469 713.162537,311.222717 713.166077,324.007996 
	C713.171265,342.970856 713.108887,361.934174 713.226013,380.896362 
	C713.270081,388.028564 718.443909,391.342438 725.138611,388.398834 
	C722.227783,383.784027 722.619934,378.597656 722.682251,372.469788 
z"/>
</svg>