<svg version="1.1" id="Layer_1" xmlns="http://www.w3.org/2000/svg" xmlns:xlink="http://www.w3.org/1999/xlink" x="0px" y="0px"
	 width="100%" viewBox="0 0 1024 528" enable-background="new 0 0 1024 528" xml:space="preserve">
<path fill="#000000" opacity="1.000000" stroke="none" 
	d="
M413.774963,393.308258 
	C402.786469,396.187927 394.131042,392.293976 389.311432,382.636993 
	C385.369995,374.739594 381.396362,366.858276 377.427246,358.974701 
	C377.360260,358.841705 377.170197,358.770660 376.740417,358.446777 
	C376.740417,363.528503 376.664978,368.401520 376.763550,373.270996 
	C376.847321,377.408997 377.744568,381.521759 376.369965,385.656433 
	C373.593781,394.006805 365.961182,398.699585 357.242554,397.230713 
	C350.302460,396.061523 345.736816,389.838287 345.697144,381.316498 
	C345.646729,370.485077 345.456726,359.646576 345.779663,348.824615 
	C345.924255,343.979065 344.785614,341.654968 339.490692,342.147278 
	C336.550934,342.420593 333.517914,341.842285 330.540100,341.524384 
	C323.878265,340.813171 319.159454,336.778656 317.640900,330.341492 
	C311.491791,304.275543 305.394897,278.197266 299.292938,252.120239 
	C299.028717,250.991028 298.812195,249.835541 298.730682,248.681198 
	C298.246613,241.823792 298.144135,241.781265 291.014618,242.598724 
	C265.883057,245.480301 245.141861,257.755524 225.828445,273.052826 
	C204.304626,290.100922 188.673111,311.900696 175.006210,335.425049 
	C163.931168,354.488129 149.629272,370.922638 131.636230,383.852966 
	C124.297653,389.126678 116.474312,393.642914 106.904503,393.348969 
	C105.401558,393.302765 103.900795,393.282074 102.550652,392.472900 
	C101.294563,391.720123 100.531410,390.701111 100.928062,389.176514 
	C101.333824,387.616913 102.558479,387.029266 103.989410,387.268036 
	C115.032761,389.110657 123.240395,383.066223 131.210815,377.077728 
	C150.490372,362.592163 164.004944,343.324829 176.073456,322.739471 
	C196.590805,287.742859 224.627502,260.723267 262.153992,244.327087 
	C273.064209,239.560165 284.490692,236.547485 296.527100,236.729202 
	C299.498291,236.774048 301.457336,235.896179 303.102570,233.306320 
	C307.386414,226.563004 313.730469,223.661026 321.705353,223.687073 
	C349.867340,223.779068 378.029938,223.780380 406.192017,223.707367 
	C413.776337,223.687714 419.515137,226.690628 422.741028,233.529648 
	C424.138184,236.491638 426.183380,236.644272 428.772217,236.641220 
	C441.936707,236.625732 455.101257,236.672256 468.265808,236.673843 
	C522.757385,236.680374 577.248962,236.641632 631.740356,236.753448 
	C635.867859,236.761917 638.322876,236.225586 639.630310,231.523132 
	C641.420654,225.083618 646.979431,221.772156 653.744141,221.755341 
	C665.575562,221.725937 677.408325,221.660339 689.237793,221.816025 
	C692.460938,221.858429 694.440613,220.798737 696.073975,217.986588 
	C699.836914,211.507904 703.950623,205.233917 707.866211,198.842651 
	C715.653931,186.130890 727.961487,179.820801 740.794312,181.670197 
	C749.757385,182.961868 763.892212,194.346268 762.503113,206.703995 
	C761.596680,214.766983 762.584839,223.025528 762.248901,231.176895 
	C762.061462,235.726151 763.746033,236.853424 768.017700,236.759781 
	C779.177124,236.515091 790.381714,237.252518 801.500671,236.541229 
	C813.070251,235.801102 821.088318,241.376038 827.514343,249.642685 
	C840.570862,266.439026 841.847656,285.528168 834.255188,304.483795 
	C828.751648,318.224274 826.637146,331.893585 827.453491,346.348846 
	C827.559570,348.226349 827.771667,350.437866 825.401917,350.777618 
	C822.788879,351.152191 821.945557,348.848755 821.903748,346.844940 
	C821.623108,333.388855 821.130493,320.075378 827.078674,307.204102 
	C835.323608,289.363068 835.743835,271.327484 824.086121,254.506393 
	C818.483643,246.422455 810.596252,241.968658 800.286926,242.244064 
	C789.796021,242.524323 779.284485,242.542679 768.796753,242.210098 
	C763.898376,242.054779 761.968628,243.252853 762.226990,248.540039 
	C762.665649,257.517090 761.969910,266.551483 762.452332,275.524017 
	C762.894836,283.752838 759.650085,289.941467 754.049500,295.483093 
	C746.242615,303.207703 738.096191,310.654358 732.349487,320.203552 
	C728.200317,327.098206 724.988037,334.209717 723.860718,342.389160 
	C722.069214,355.388031 719.524719,368.283600 717.269897,381.217865 
	C716.492126,385.679504 715.287659,389.962524 712.323425,393.588348 
	C707.083191,399.997955 699.246216,402.168945 692.190552,399.048431 
	C684.595703,395.689484 680.252258,387.695160 681.464600,379.681305 
	C684.572266,359.139740 687.621338,338.589203 690.639099,318.034210 
	C691.458069,312.456146 693.792969,307.542908 696.896240,302.950348 
	C698.386780,300.744324 699.769165,298.326080 701.723938,296.595062 
	C716.208557,283.768890 714.350037,266.988586 713.272888,250.615051 
	C693.707397,253.237732 674.112915,251.419678 654.576599,251.815292 
	C648.801697,251.932236 643.644531,250.151703 640.505981,244.843842 
	C639.045471,242.373825 636.912292,242.272507 634.507385,242.281296 
	C623.842529,242.320282 613.177429,242.310104 602.512451,242.307037 
	C545.521423,242.290634 488.530365,242.286224 431.539398,242.221939 
	C427.264526,242.217117 423.724030,242.244888 421.202850,247.023132 
	C419.046478,251.109970 414.373871,252.446365 409.531250,252.421478 
	C389.368103,252.317856 369.203278,252.440063 349.041687,252.227676 
	C344.378143,252.178543 343.039673,253.183731 344.020142,258.176605 
	C346.741272,272.033722 348.915314,286.002106 351.083618,299.961029 
	C351.553040,302.983032 352.872345,303.832520 355.674469,303.742157 
	C364.661804,303.452332 373.660522,304.013336 382.647675,303.153351 
	C390.255066,302.425385 394.899628,305.085571 398.310699,312.104828 
	C406.974670,329.933380 415.589020,347.786896 424.082855,365.696930 
	C429.381744,376.870117 425.386322,387.660004 413.774963,393.308258 
M712.530029,291.957062 
	C708.875732,296.709747 705.197571,301.444305 701.575134,306.221161 
	C698.909729,309.736023 697.110596,313.755432 696.453552,318.043396 
	C693.255676,338.911224 690.203186,359.802032 687.238892,380.704498 
	C686.308594,387.263916 690.529114,393.154022 696.674866,394.506958 
	C702.249146,395.734131 707.576416,392.170990 709.836548,385.663727 
	C713.794434,374.268066 715.063843,362.274048 716.530762,350.469879 
	C718.613159,333.712128 724.270325,318.885162 735.477417,306.293793 
	C740.012512,301.198547 744.772766,296.273682 749.744385,291.605469 
	C754.684570,286.966705 756.882507,281.687988 756.795593,274.798920 
	C756.511963,252.309311 756.694702,229.813858 756.688843,207.320663 
	C756.686035,196.574326 747.675293,187.314072 736.913940,187.131973 
	C726.146118,186.949753 718.723755,192.555161 713.222778,201.250015 
	C708.859741,208.146103 704.664246,215.149597 700.220703,221.992676 
	C698.252136,225.024414 696.244507,228.196182 691.720093,227.841660 
	C679.081970,226.851318 666.417236,227.506882 653.765625,227.487091 
	C647.746277,227.477676 644.091980,231.562668 644.217712,237.339096 
	C644.338257,242.881775 647.370056,245.688278 653.703674,245.728455 
	C669.531555,245.828873 685.366394,245.565796 701.185242,245.968262 
	C707.232422,246.122116 711.321228,243.905472 714.731140,239.271225 
	C720.060730,232.027847 725.527954,224.884201 731.029724,217.770142 
	C732.438049,215.949005 733.751282,212.584122 736.744995,214.871292 
	C739.261597,216.793961 737.078674,219.150131 735.738953,220.960403 
	C731.480042,226.715073 727.212341,232.470001 722.730103,238.049759 
	C720.434082,240.908035 719.146179,243.793121 719.256836,247.576691 
	C719.490540,255.567429 718.936279,263.594391 719.438477,271.560272 
	C719.920105,279.199585 717.790894,285.643494 712.530029,291.957062 
M346.095215,306.166077 
	C343.628387,291.067871 341.051208,275.986450 338.757324,260.862000 
	C337.999847,255.867661 337.852142,250.987839 330.617004,252.149384 
	C328.878296,252.428528 327.228210,251.339432 327.306335,249.266205 
	C327.374084,247.468323 328.842865,246.828979 330.486542,246.754044 
	C331.983765,246.685791 333.484650,246.676941 334.983917,246.677795 
	C358.647217,246.691315 382.310547,246.718597 405.973846,246.716125 
	C408.292511,246.715881 410.630005,246.911835 412.901550,246.105148 
	C418.248291,244.206345 420.019196,239.187378 416.815674,234.562622 
	C414.371368,231.033890 410.955200,229.337448 406.589966,229.365097 
	C395.925262,229.432678 385.259827,229.381775 374.594666,229.383942 
	C356.930542,229.387527 339.265594,229.295685 321.602539,229.437317 
	C310.296722,229.527969 302.602081,239.479813 305.137604,250.490509 
	C311.033142,276.092529 316.960266,301.687317 322.932922,327.271454 
	C324.339935,333.298492 326.723236,335.420532 332.865601,335.824005 
	C344.159149,336.565857 355.462158,337.337189 366.772095,337.572113 
	C371.447571,337.669250 374.057404,339.354431 376.064789,343.456940 
	C382.140137,355.873169 388.475952,368.163055 394.796570,380.457855 
	C398.476715,387.616455 406.200409,390.573364 412.767975,387.509613 
	C419.724640,384.264282 422.660431,376.426758 419.141663,368.897919 
	C410.678589,350.790009 401.906525,332.826691 393.314697,314.778564 
	C391.380249,310.715118 388.511444,308.896912 383.842865,309.048431 
	C373.353058,309.388885 362.849396,309.320129 352.351166,309.370819 
	C350.079590,309.381775 347.532745,309.884644 346.095215,306.166077 
M370.681488,356.535095 
	C370.547638,340.732147 371.966797,343.828064 357.810272,343.127075 
	C357.477570,343.110626 357.140198,343.130676 356.812286,343.083252 
	C352.767914,342.498016 351.166077,344.016449 351.264099,348.301727 
	C351.511658,359.123077 351.310455,369.954041 351.360626,380.780792 
	C351.393555,387.885803 354.867889,391.871033 360.764587,391.759613 
	C366.676849,391.647919 370.869202,387.082947 370.882690,380.510132 
	C370.898407,372.848511 370.759674,365.186584 370.681488,356.535095 
z"/>
<path fill="#000000" opacity="1.000000" stroke="none" 
	d="
M322.532654,154.289948 
	C341.132385,144.785950 363.177856,154.495880 368.355377,173.914017 
	C372.875244,190.865692 362.620941,208.558014 345.379089,212.916290 
	C328.200958,217.258469 310.583008,206.499695 306.784454,189.347656 
	C303.680420,175.331726 309.240692,162.758713 322.532654,154.289948 
M351.326263,160.102783 
	C349.681000,159.311707 348.089020,158.373993 346.381744,157.753540 
	C335.952118,153.963394 323.613861,157.512253 317.205811,166.073090 
	C309.839264,175.914383 309.800110,188.340195 317.105255,197.986160 
	C323.897858,206.955246 336.126648,210.559296 346.661957,206.513458 
	C356.161133,202.865540 362.025238,195.806320 363.418060,185.860031 
	C364.898560,175.287567 360.886658,166.632996 351.326263,160.102783 
z"/>
<path fill="#000000" opacity="1.000000" stroke="none" 
	d="
M695.718872,161.199463 
	C680.887573,140.569580 691.573975,114.808716 716.008789,111.462395 
	C733.026672,109.131813 748.310547,122.049492 750.061584,140.243256 
	C751.568176,155.896957 737.714050,171.489441 721.630554,172.306671 
	C711.307007,172.831238 702.741943,169.277969 695.718872,161.199463 
M727.840332,118.460663 
	C717.326904,115.279518 707.848450,117.092636 700.600952,125.507637 
	C693.743408,133.469986 692.120361,142.826416 696.929810,152.464996 
	C701.743591,162.112259 709.799316,167.019714 720.727661,166.664551 
	C731.445312,166.316208 741.378296,157.949280 743.586487,147.569107 
	C746.245667,135.068893 740.748657,124.523186 727.840332,118.460663 
z"/>
</svg>