<svg version="1.1" id="Layer_1" xmlns="http://www.w3.org/2000/svg" xmlns:xlink="http://www.w3.org/1999/xlink" x="0px" y="0px"
	 width="100%" viewBox="0 0 1024 528" enable-background="new 0 0 1024 528" xml:space="preserve">
<path fill="#000000" opacity="1.000000" stroke="none" 
	d="
M376.209290,385.643646 
	C371.167633,397.774261 356.542908,402.142303 346.095062,394.887115 
	C341.499908,391.696136 339.606934,387.216278 340.228668,381.488708 
	C342.166504,363.637848 343.914612,345.766357 345.732819,327.902496 
	C346.103302,324.262695 345.979828,320.491241 346.925781,317.009155 
	C348.640137,310.698547 347.067108,305.627594 342.637299,301.099182 
	C330.184875,288.369446 325.177704,272.674561 323.423126,255.284515 
	C322.105499,242.225571 321.428436,242.911469 308.609558,242.169327 
	C276.393951,240.304276 250.110107,253.690857 225.888794,272.973785 
	C204.405731,290.076752 188.718964,311.814941 175.045273,335.341461 
	C163.968979,354.398987 149.697556,370.866028 131.700317,383.800537 
	C124.361351,389.074982 116.549423,393.609131 106.982185,393.349396 
	C105.309395,393.303955 103.644501,393.274902 102.197311,392.240265 
	C101.153358,391.493958 100.632881,390.541107 100.907196,389.244171 
	C101.194687,387.884979 102.241692,387.113007 103.427895,387.271393 
	C118.109238,389.231934 127.839455,380.024689 137.717438,371.720978 
	C153.878815,358.135193 165.479172,340.891388 176.025040,322.780945 
	C194.109100,291.725189 218.621628,267.092682 250.364517,249.874771 
	C268.048370,240.282745 286.758118,235.653931 306.994629,236.569809 
	C320.504883,237.181259 320.459534,236.698883 318.089752,223.510483 
	C317.120422,218.115738 316.021973,212.671371 315.847382,207.221878 
	C315.491943,196.127106 323.333984,186.656265 334.708099,183.045044 
	C345.544220,179.604660 359.071960,183.667175 364.134766,192.878693 
	C368.615051,201.030319 374.349213,208.484879 379.322113,216.378021 
	C381.059906,219.136276 383.196899,220.054153 386.335846,220.028473 
	C399.500702,219.920853 412.667206,219.955338 425.832794,220.013077 
	C434.946747,220.053040 439.359589,223.927032 440.249176,232.984100 
	C440.526154,235.803925 441.584503,236.879990 444.262665,236.690643 
	C445.091675,236.632034 445.928528,236.686234 446.761810,236.686203 
	C508.757782,236.684097 570.753784,236.645630 632.749573,236.757492 
	C637.057800,236.765259 639.508240,236.032944 641.122192,231.360641 
	C643.295532,225.068985 648.384521,221.712799 655.450623,221.795609 
	C666.115112,221.920578 676.784912,221.690659 687.446716,221.899582 
	C691.200439,221.973129 693.585754,220.815918 695.606873,217.563675 
	C700.353821,209.925095 705.458984,202.507874 710.467651,195.033524 
	C718.786438,182.619583 739.438232,181.114426 749.580750,192.170013 
	C752.459229,195.307617 753.486938,199.136124 753.189087,203.263306 
	C752.518372,212.556686 752.097351,221.896652 750.775452,231.102875 
	C750.073608,235.990692 751.601013,236.791702 755.880005,236.745987 
	C771.210449,236.582153 786.565613,237.196640 801.868896,236.534912 
	C813.022888,236.052612 820.846924,241.280258 827.127197,249.154709 
	C840.533447,265.963989 841.943481,285.229309 834.281494,304.368561 
	C828.775818,318.121399 826.669006,331.778015 827.425903,346.230438 
	C827.523132,348.087891 827.784912,350.339325 825.396973,350.676300 
	C822.790405,351.044220 821.959351,348.745239 821.911499,346.728241 
	C821.591919,333.262482 821.219421,319.961334 827.143921,307.092102 
	C835.278748,289.421783 835.714722,271.526855 824.308289,254.802200 
	C818.659546,246.519669 810.707458,241.996353 800.170776,242.222153 
	C785.511780,242.536270 770.838745,242.453018 756.176697,242.222748 
	C751.325439,242.146545 749.468018,243.668640 749.206604,248.697556 
	C748.558960,261.152191 747.314514,273.575989 746.289062,286.010468 
	C746.221313,286.831604 746.190918,287.767426 745.786011,288.432495 
	C738.993347,299.590698 743.671387,311.863251 742.342224,323.544434 
	C742.052063,326.094788 744.046204,327.340607 745.759094,328.680817 
	C758.752075,338.846283 771.695923,349.075195 784.746582,359.165924 
	C793.692017,366.082550 795.043152,377.397766 787.801697,386.417664 
	C780.976196,394.919434 769.347778,395.732452 760.838806,388.377197 
	C746.467285,375.954254 732.543579,362.941040 717.488525,351.406921 
	C707.901794,344.062286 707.214539,335.021484 708.165161,324.831696 
	C708.487854,321.372711 708.874146,317.979950 708.562439,314.038544 
	C701.805786,317.061127 696.158508,319.686951 693.825745,327.710205 
	C688.716248,345.283264 682.494568,362.535980 676.606628,379.878632 
	C672.888184,390.831299 662.128540,396.506775 651.643799,393.263519 
	C641.992249,390.278046 636.776917,380.125092 640.131958,370.578796 
	C647.530701,349.526642 655.075745,328.525635 662.409973,307.451172 
	C664.528381,301.364136 668.095764,296.703796 673.456909,293.125183 
	C681.493286,287.760834 689.247986,281.973877 697.295837,276.627533 
	C700.962891,274.191437 702.885193,271.587036 702.337341,266.840027 
	C701.926819,263.282349 702.690857,259.569244 701.816040,256.009003 
	C700.045349,254.830231 698.159973,255.300598 696.381592,255.294891 
	C683.049255,255.252121 669.715698,255.176331 656.384705,255.317825 
	C649.452332,255.391403 644.383362,252.456131 641.528748,246.334290 
	C639.981079,243.015244 637.885437,242.234421 634.527283,242.238235 
	C570.864807,242.310593 507.202332,242.297821 443.539825,242.265915 
	C440.785583,242.264542 438.470581,242.509613 436.492035,244.956711 
	C433.797760,248.289062 429.860138,249.048752 425.664398,249.033813 
	C409.832367,248.977402 393.998077,249.175079 378.168854,248.962662 
	C373.538422,248.900497 372.575806,250.544891 372.175446,254.999908 
	C371.031494,267.729126 374.396698,278.149567 382.506805,288.472046 
	C400.922607,311.911591 417.999481,336.401489 435.689270,360.413849 
	C441.906097,368.852600 441.463684,380.134033 434.376556,387.965057 
	C428.399567,394.569305 418.899506,396.006622 411.133331,391.542938 
	C408.906860,390.263245 407.267487,388.478455 405.762299,386.429321 
	C397.387848,375.028839 388.940735,363.681763 379.756042,351.287537 
	C378.514648,363.388367 377.394043,374.311646 376.209290,385.643646 
M408.499939,242.955795 
	C414.664154,242.945175 420.829132,242.870789 426.992310,242.945908 
	C431.228241,242.997528 433.424500,240.688049 434.407196,236.905151 
	C436.083710,230.451401 432.858124,226.130142 426.083221,226.074585 
	C412.422363,225.962570 398.758423,225.909637 385.099213,226.091049 
	C380.588196,226.150955 377.658295,224.519684 375.280609,220.697845 
	C370.091034,212.356201 364.333923,204.363998 359.245636,195.964325 
	C356.281189,191.070587 352.039459,188.785217 346.808014,187.686401 
	C332.821991,184.748734 319.961853,196.360275 322.088776,210.255203 
	C325.105591,229.963684 328.284912,249.649490 331.664246,269.298615 
	C332.406708,273.615662 332.522766,278.138580 335.456848,282.030365 
	C348.593079,299.454437 361.531555,317.027710 374.529694,334.555847 
	C386.436096,350.611786 398.280914,366.713593 410.249146,382.723236 
	C414.799286,388.809875 420.239288,390.100311 426.405426,386.945435 
	C434.408997,382.850464 436.821838,371.974915 431.202881,364.236542 
	C413.388947,339.703400 395.924438,314.895294 377.383881,290.921143 
	C369.481354,280.702637 364.985291,270.468658 366.663208,257.585602 
	C367.182983,253.594879 367.731293,249.087189 362.032623,247.638931 
	C361.262756,247.443268 360.669006,246.225159 360.160797,245.380005 
	C354.581665,236.101959 349.009583,226.819382 343.503754,217.497772 
	C342.458862,215.728775 340.494080,213.515976 343.180115,211.866638 
	C346.094879,210.076874 347.278015,212.938828 348.446686,214.839920 
	C353.244415,222.644470 358.168854,230.385239 362.586517,238.403015 
	C364.599304,242.056152 367.119263,243.060638 371.014069,243.003510 
	C383.173645,242.825134 395.337677,242.948914 408.499939,242.955795 
M657.178162,339.553009 
	C653.467712,350.073059 649.626221,360.549286 646.089050,371.127319 
	C643.347290,379.326538 646.359924,385.521057 653.813049,387.877228 
	C660.829590,390.095398 668.279541,386.044037 670.992920,378.097382 
	C677.394653,359.348969 683.669312,340.556030 689.811401,321.721069 
	C690.974487,318.154449 692.818665,315.775604 696.144653,313.942993 
	C708.983887,306.868774 721.625549,299.436676 734.444336,292.324585 
	C738.630432,290.002045 740.545166,287.043091 740.886047,282.066223 
	C742.136292,263.815979 744.073792,245.613663 745.416687,227.368591 
	C746.038757,218.916840 747.331787,210.478668 746.686218,201.951508 
	C746.452576,198.865646 745.882202,196.078720 743.026062,194.174057 
	C733.198364,187.620178 719.657532,190.327927 714.663086,198.859558 
	C709.621460,207.471832 703.741882,215.595291 698.182617,223.901566 
	C696.813171,225.947784 695.594604,228.235321 692.442810,227.929947 
	C680.807373,226.802612 669.138916,227.620560 657.486389,227.459305 
	C649.533630,227.349258 645.238403,231.419937 645.291809,238.615692 
	C645.342957,245.514359 649.723328,249.622696 657.263672,249.655212 
	C669.761719,249.709091 682.261719,249.563477 694.757385,249.744278 
	C698.162415,249.793533 700.297607,248.554581 702.243835,245.889954 
	C709.220581,236.337738 716.360596,226.904434 723.481506,217.458252 
	C724.671082,215.880203 726.081665,213.825653 728.328003,215.558716 
	C730.408508,217.163803 729.267334,219.147446 728.015503,220.833939 
	C724.936951,224.981232 722.196838,229.453690 718.670044,233.179489 
	C710.147156,242.183273 706.147583,252.464905 708.016418,264.887329 
	C708.335022,267.005188 707.945618,269.219757 708.075867,271.378021 
	C708.277161,274.713104 706.923706,276.921204 704.130798,278.826996 
	C694.638062,285.304413 685.361389,292.097931 675.889282,298.606384 
	C671.846252,301.384460 669.283936,305.023987 667.706665,309.592590 
	C664.337769,319.350220 660.835327,329.061707 657.178162,339.553009 
M766.860535,385.839081 
	C773.818542,389.364502 780.519653,387.554749 784.503540,381.074341 
	C788.498169,374.576447 787.255798,368.582581 780.959045,363.657623 
	C771.250000,356.063782 762.121704,347.548523 751.727844,341.055756 
	C739.444092,333.382446 734.020752,323.645630 736.609070,309.381500 
	C737.047791,306.963501 736.698853,304.394257 736.633850,301.896973 
	C736.605469,300.804749 736.970032,299.493713 734.937866,298.644653 
	C729.208618,301.880096 723.139221,305.307312 717.070129,308.735199 
	C715.566772,309.584320 715.422791,311.027710 715.189270,312.563324 
	C713.955688,320.674896 714.102783,328.827026 714.211609,336.989563 
	C714.247803,339.712524 715.274841,341.656189 717.343628,343.420868 
	C733.690552,357.365143 749.968689,371.390106 766.860535,385.839081 
M347.200409,370.349152 
	C346.835236,373.981323 346.300995,377.606049 346.140717,381.247253 
	C345.824036,388.440521 349.162292,392.086121 356.270081,392.627136 
	C363.624603,393.186920 370.013367,388.921753 370.709290,382.622894 
	C371.857452,372.231476 372.325104,361.747009 373.906586,351.428497 
	C374.753052,345.905457 373.181580,341.972473 369.919220,337.889709 
	C365.042572,331.786713 360.588654,325.346863 355.905762,319.087097 
	C355.093567,318.001373 354.591644,316.424011 352.578094,316.278107 
	C350.795288,334.125275 349.031525,351.782013 347.200409,370.349152 
z"/>
<path fill="#000000" opacity="1.000000" stroke="none" 
	d="
M730.476440,176.884262 
	C714.294189,173.850037 704.620239,164.207123 702.487793,149.332489 
	C700.196594,133.350510 711.336853,117.744308 727.243591,114.652489 
	C743.966064,111.402100 760.229492,121.428612 764.211914,137.443710 
	C769.523804,158.805511 753.327087,178.019958 730.476440,176.884262 
M709.093201,153.178436 
	C714.153259,166.400864 724.028687,172.415710 737.978638,170.771790 
	C750.585022,169.286179 761.168030,155.759018 759.532471,143.221802 
	C757.632812,128.660263 744.900208,117.994431 731.577942,119.804970 
	C714.514832,122.123894 705.656128,134.810822 709.093201,153.178436 
z"/>
<path fill="#000000" opacity="1.000000" stroke="none" 
	d="
M324.360046,113.980988 
	C342.861420,110.133034 358.780548,122.219147 361.744873,136.996750 
	C364.232727,149.399155 361.217621,160.240723 351.239868,168.342514 
	C341.161285,176.526184 329.659821,177.927841 318.031555,172.351776 
	C306.804291,166.968033 300.721710,157.608124 300.618134,144.890991 
	C300.492981,129.519363 308.621033,118.886307 324.360046,113.980988 
M352.922699,130.642853 
	C343.822144,118.019363 327.212952,115.181053 315.709503,124.283539 
	C304.163544,133.419678 302.782471,150.572006 312.707184,161.571243 
	C321.200409,170.983978 335.546906,172.466827 346.325836,165.046051 
	C357.007050,157.692535 359.876617,143.851990 352.922699,130.642853 
z"/>
</svg>